<svg xmlns="http://www.w3.org/2000/svg" viewBox="0 0 54.338 54.341">
	<path data-name="iconmonstr-paintbrush-7" d="M20.371 31.666a4.525 4.525 0 11-4.562-4.494 4.525 4.525 0 014.562 4.494zm-2.215-9.025a4.526 4.526 0 114.485-4.564 4.528 4.528 0 01-4.485 4.564zm18.07-9.088a4.528 4.528 0 11-4.562-4.49 4.537 4.537 0 014.562 4.49zM9.057 49.432c10.385.86 6.666-10.17 16.274-10.272l4.161 3.473C30.53 55.17 15.195 57.966 9.057 49.432zM40.9 33.323c3.231-5.069 13.236-22.071 13.236-22.071a1.462 1.462 0 00-2.206-1.84S37.05 22.349 32.66 26.449c-3.469 3.242-3.484 4.723-4.607 10.068l3.8 3.17c5.042-2.072 6.493-2.355 9.045-6.364zM12.324 44.201A22.6 22.6 0 0126.989 4.533c8.69-.048 14.669 4.313 14.708 7.8l3.765-3.3C43.175 4.008 35.993-.118 26.95.001A27.161 27.161 0 006.392 44.666c2.169 1.114 4.808.745 5.932-.465zM41.3 39.889c2.4 4.46-3.059 7.63-8.026 9.038a13.991 13.991 0 01-3.111 5.232c11.9-1.338 20.515-9.745 14.187-17.862a17.643 17.643 0 01-3.05 3.592z" fill="#4d64b7" />
</svg>
