<svg xmlns="http://www.w3.org/2000/svg" viewBox="0 0 21 24">
	<path d="M18.54 0A2.466 2.466 0 0121 2.472V24l-2.58-2.28-1.452-1.344-1.536-1.428.636 2.22H2.46A2.466 2.466 0 010 18.7V2.472A2.466 2.466 0 012.46 0h16.08zm-4.632 15.672a4.387 4.387 0 003.672-1.824 16.07 16.07 0 00-1.728-7 5.934 5.934 0 00-3.372-1.26l-.168.192A7.986 7.986 0 0115.3 7.308a9.782 9.782 0 00-3.612-1.152 10.153 10.153 0 00-2.424.024l-.2.024a9.012 9.012 0 00-2.724.756c-.444.2-.708.348-.708.348a8.1 8.1 0 013.152-1.572l-.12-.144a5.934 5.934 0 00-3.372 1.26 16.07 16.07 0 00-1.728 7 4.351 4.351 0 003.66 1.824s.444-.54.8-1a3.732 3.732 0 01-2.1-1.416l.336.2.048.036.047.027.014.006.047.027a7.032 7.032 0 00.876.408 10.073 10.073 0 001.764.516 8.406 8.406 0 003.108.012 7.9 7.9 0 001.74-.516 6.867 6.867 0 001.38-.708 3.787 3.787 0 01-2.168 1.432c.36.456.792.972.792.972zm-5.58-5.6a1.337 1.337 0 000 2.664A1.278 1.278 0 009.552 11.4a1.271 1.271 0 00-1.224-1.332zm4.38 0a1.337 1.337 0 101.224 1.328 1.278 1.278 0 00-1.224-1.332z" fill="#242426" fill-rule="evenodd" />
</svg>
