<svg xmlns="http://www.w3.org/2000/svg" viewBox="0 0 240.2 304.018">
	<g fill="#242426" stroke="#242426" fill-rule="evenodd">
		<path d="M54.185 4.081a31.708 31.708 0 00-2.966 2.422l-1.306 1.246v35.639c0 31.491-.085 35.765-.738 36.7-1.1 1.568-3.589 1.391-6.818-.483l-2.649-1.538H21.671l-3.322 1.821c-9.873 5.406-14.039 11.37-14.395 20.6-.211 5.53.568 13.167 1.395 13.678a8.938 8.938 0 011.427 2.218c2.9 5.679 9.082 11.3 16.617 15.1 4.387 2.216 4.34 3.628-.3 8.988a22.661 22.661 0 00-3.084 4.072 11.96 11.96 0 01-1.546 2.84l-1.542 2.328v7.879c0 7.739.022 7.912 1.257 9.739a14.513 14.513 0 011.607 3.045c.328 1.113 3.623 5.228 6.457 8.062 1.654 1.654 1.276 4.084-1.128 7.232-3.429 4.493-5.57 12.922-4.658 18.338.556 3.3 3.555 11.714 4.351 12.207 3.012 1.862 4.748 6.243 3.246 8.2-13.495 17.556-5.26 40.83 15.629 44.176 5.816.931 6.226 1.98 6.226 15.947v10.711l1.866 2 1.867 2 72.061-.1c39.634-.057 72.585-.231 73.223-.388 1.243-.307-.107-1.387-4.009-3.207a7.2 7.2 0 01-2.083-1.459 8.006 8.006 0 00-2.245-1.547c-2.623-1.245-7.363-8-8.741-12.451a21.5 21.5 0 012.75-18.4l2.557-3.847a8.982 8.982 0 012.135-2.072 136.61 136.61 0 003.651-2.558 16.058 16.058 0 014.162-2.163c9.128-2.458 11.384-9.807 4.66-15.175-1.3-1.042-1.389-3.224-1.389-36v-33.693l2.147-2.634c3.8-4.666 11-5.008 14.433-.685 2.391 3.011 2.406 3.3 2.411 47.122 0 23.684.207 43.121.485 46.276.266 2.992.666 10.362.891 16.376.446 11.9.538 11.269-2.336 16.156-4.271 7.261-.56 11.609 10.229 11.99l6.19.218.566-1.243c.794-1.742.878-291.524.085-293.2a8.245 8.245 0 00-3.222-2.453l-2.682-1.323-86.862.058-86.861.057-1.662 1.175m166.492 14.661l1.075 1.243-.126 62.184c-.122 60.931-.143 62.2-1.046 62.856-1.206.882-3.536.853-6.752-.082-2.683-.78-5.117-.718-9.395.237-4.988 1.115-6.836-.95-5.165-5.772 1.35-3.892 1.176-17.977-.271-21.952a28.6 28.6 0 01-1.324-5.855 9.652 9.652 0 00-1.478-4.747 50.184 50.184 0 01-2.8-5.061c-2.126-4.378-3.5-6.616-5.037-8.225a6.12 6.12 0 01-1.265-1.632c0-.764-7.678-7.751-10.679-9.719-1.828-1.2-3.756-2.562-4.286-3.033a11.451 11.451 0 00-3.062-1.6 11.029 11.029 0 01-2.86-1.429c-2.082-1.884-16.833-4.989-23.656-4.979-6.218.009-20.912 3.22-22.878 5a11.077 11.077 0 01-2.838 1.41 11.591 11.591 0 00-3.062 1.584 50.136 50.136 0 01-5.424 3.87 53.648 53.648 0 00-8.828 8.308c-.784.961-2.039 2.479-2.789 3.377-2.762 3.3-8.215 14.854-8.6 18.219a43.107 43.107 0 01-1.53 6.757c-1.188 3.706-1.277 7-.5 18.636l.126 1.9-2.61-.022c-2.044-.016-3.386-.409-6.171-1.807a21.342 21.342 0 00-5.933-2.039c-3.8-.406-5.186-1-6.19-2.663-1.11-1.836-1.746-111.251-.66-113.872 1.149-2.777-6.371-2.55 80.659-2.435l74.282.1 1.076 1.241m-112.859 16.89a4.766 4.766 0 00-1.992 7.07c1.912 2.36 12.16 1.784 13.314-.749 2.3-5.044-4.666-8.932-11.322-6.321m24.6.591c-5.387 2.393-5.364 6.909.042 8.365 3.162.852 46.158.461 47.228-.429 2.759-2.29 2.195-6.087-1.147-7.721-2.1-1.029-43.854-1.223-46.123-.215m20.621 45.916a18.611 18.611 0 017.12 2.3 42.5 42.5 0 005.156 2.367 6.9 6.9 0 012.566 1.475 2.864 2.864 0 001.275.932c.854 0 5.309 3.951 9.677 8.584a47.138 47.138 0 017.3 11.826 10.529 10.529 0 001.243 2.381c1.708 2.025 2.9 14.542 2.127 22.4-.821 8.389-1 9.267-2.243 11.1a6.843 6.843 0 00-1.122 2.247c0 .889-4.711 9.862-5.9 11.23a16.144 16.144 0 00-1.85 2.848 39.436 39.436 0 01-4.213 6.373 12.04 12.04 0 00-1.45 2.295c-.517 1.318-5.224 8.115-5.929 8.563a1.335 1.335 0 00-.6.976 21.42 21.42 0 01-2.729 4.249c-3.3 4.42-5.229 7.045-6.63 9.037-.58.823-2.3 3.2-3.819 5.293s-3.336 4.652-4.033 5.7c-4.664 6.979-7.524 6.762-12.591-.95a37.8 37.8 0 00-2.72-3.8 12.278 12.278 0 01-1.45-1.9c-.5-.783-1.173-1.745-1.491-2.137-.8-.988-2.631-3.556-4.736-6.645-.979-1.435-2.32-3.262-2.98-4.057-2.193-2.644-4.544-6.1-11.615-17.066a448.84 448.84 0 00-2.44-3.737 77.756 77.756 0 01-5.628-9.4 28.111 28.111 0 00-2.594-4.4 9.343 9.343 0 01-1.243-3 12.506 12.506 0 00-1.5-3.516c-2.128-2.38-2.149-25.532-.026-29.9a37.216 37.216 0 001.773-4.307 5.243 5.243 0 01.994-2.053 18.532 18.532 0 002.083-3.52c2.875-5.708 13.579-15.727 18.647-17.453a32.74 32.74 0 004.883-2.312c2.571-1.506 4.633-1.955 12.549-2.734a89.082 89.082 0 0114.129.7M41.133 95.188a47.789 47.789 0 016.882 3.949l1.661 1.4.142 12.082c.158 13.61.157 13.619-3.225 13.619a4.722 4.722 0 01-3.183-1.14 10.724 10.724 0 00-3.478-1.705 9.442 9.442 0 01-2.834-1.183 57.447 57.447 0 00-5.934-3.125c-6.2-2.974-11.749-7.993-12.44-11.248-2.921-13.767 7.768-19.8 22.409-12.647m95.121 5.158c-3.884.486-5.478.911-6.991 1.866a15.225 15.225 0 01-2.184 1.238c-1.737 0-10.322 8.116-11.7 11.064-.512 1.094-1.674 3.24-2.582 4.769-2.31 3.89-2.355 6.6-.108 6.388 1.356-.131 1.632-.407 2.284-2.285 1.157-3.335 2.2-5.551 2.777-5.908a7.584 7.584 0 001.454-2.139c1.729-3.388 9.4-9.568 13-10.479a30.35 30.35 0 003.826-1.3c3.167-1.366 11.4-1.024 16.2.673a32.033 32.033 0 0118.445 18.264 8.36 8.36 0 002.208 3.211l1.371 1.013.307-1.222c.547-2.179-.141-4.789-2.013-7.639-1.008-1.535-2.147-3.4-2.531-4.138-1.337-2.578-7.779-8.545-11.447-10.6-5.2-2.917-13.208-3.912-22.315-2.773m2.3 23.552a1.64 1.64 0 00-.83 1.172.654.654 0 01-.608.688 12.12 12.12 0 00-3.2 2.489l-2.6 2.488-7.143.171a54.447 54.447 0 01-8.817-.291c-3.339-.922-7.107 2.327-5.135 4.428.915.973 1.234 1 10.63.78l9.687-.224 2.763 2.739c6.341 6.287 12.838 6.552 18.58.755 3.507-3.539 3.568-3.554 13.971-3.254 11.066.317 13.281-.556 9.757-3.85l-1.511-1.412-7.643.271c-11.769.417-11.458.518-18.143-5.919-1.705-1.642-7.633-2.268-9.758-1.03m8.444 3.015c2.86 1.874 3.236 9.648.567 11.761-4.56 3.612-10.949 1.1-11.1-4.372-.193-6.878 5.364-10.776 10.534-7.389m25.721 12.836a6.5 6.5 0 00-1.295 2.171c0 2.543-5.6 11.317-9.12 14.294-16.155 13.651-40.668 6.974-47.2-12.859-1.185-3.6-1.345-3.831-2.611-3.831-2.693 0-1.792 4.429 2.365 11.629 2.636 4.565 5.9 7.75 12.675 12.375 2.258 1.541 10.945 3.526 15.431 3.526 11.045 0 22.959-6.355 27.137-14.478a12.9 12.9 0 011.274-2.135c1.554-1.244 3.06-4.76 3.266-7.627.31-4.341-.223-5.192-1.92-3.065m-125.29 6.618c1.673.854 3.585 1.272 7.5 1.64a41.941 41.941 0 016.619 1.013c.751.286 3.405.958 5.9 1.5 10.981 2.365 15.8 9.737 11.635 17.8-3.006 5.814-8 7.972-14.767 6.384-1.265-.3-5.474-1.173-9.354-1.949-3.9-.778-7.722-1.821-8.549-2.332a12.245 12.245 0 00-4.1-1.234c-8.271-.984-12.979-7.526-10.874-15.11a13.061 13.061 0 015.768-6.522 8.76 8.76 0 002.362-1.476c1.274-1.275 5.065-1.133 7.86.3m51.948 21.575a51.3 51.3 0 013.665 5.282c1.568 2.48 3.026 4.723 3.238 4.984s1.443 2.076 2.735 4.035 3.118 4.521 4.061 5.7a39.368 39.368 0 013.037 4.509 23.38 23.38 0 002.678 3.812 39.641 39.641 0 013.142 4.109c1.784 2.663 6.33 8.989 8.775 12.211.711.936 1.666 2.236 2.122 2.888s1.905 2.5 3.219 4.1 3.012 3.681 3.775 4.627c2.468 3.06 4.779 2.281 8.669-2.918a23.148 23.148 0 012.342-2.775 24.839 24.839 0 003.968-5.521c.538-.979 1.159-1.781 1.38-1.781.372 0 1.27-1.229 6.926-9.492 1.161-1.7 2.576-3.619 3.144-4.272s2.2-3 3.628-5.222a41.049 41.049 0 013.169-4.536 42.516 42.516 0 004.345-6.247c2.728-4.458 6.766-6.53 7.487-3.839.158.587.289 14.438.293 30.781l.006 29.714-1.34 1.851a21.183 21.183 0 01-3.075 3.275 65.587 65.587 0 00-6.264 6.116c-1.486 1.595-4.555 7.354-6.73 12.633-1.212 2.943-1.276 3.524-1.4 12.543-.121 8.846-.193 9.521-1.115 10.442-.988.988-90.8 1.889-97.2.976-2.844-.406-3.669-1.8-3.669-6.207 0-5.191.288-5.387 7.766-5.287 5.468.074 6.27-.028 9.083-1.16a42.227 42.227 0 014.372-1.531c1.694-.383 10.707-9.385 11.113-11.1a27.683 27.683 0 011.5-3.853c2.006-4.315 1.951-15.279-.088-17.568a9.067 9.067 0 01-1.227-2.886 10.232 10.232 0 00-2.6-4.272c-4.14-4.329-4.1-6.415.228-11.106a9.743 9.743 0 002.571-5.2 25.647 25.647 0 011.274-4.205c.78-1.456.59-8.873-.281-10.955a28.843 28.843 0 01-1.241-4.135c-.513-2.4-2.328-4.977-7.408-10.54-2.273-2.488-2.511-3.6-1.055-4.919s4.021-6.167 5.193-9.826c1.5-4.678 3.254-5.666 5.788-3.254m-49.6 21.135a38.512 38.512 0 005.4 1.2 21.93 21.93 0 015.316 1.474c1.17.607 3.817 1.154 7.594 1.57 8.81.971 12.513 3.13 15.1 8.8 2.568 5.636.011 12.2-6.078 15.592-2.907 1.622-13.3.574-17.855-1.8a19.886 19.886 0 00-6.4-1.46 36.281 36.281 0 01-6.436-1.17 119.14 119.14 0 00-4.173-1.408c-2.2-.69-4.983-3.384-6.587-6.376-4.218-7.874 5.693-19.4 14.124-16.424m3.934 42.508c3.264.782 7.561 1.61 9.552 1.842a20.748 20.748 0 015.214 1.219 21.586 21.586 0 005 1.3c11.07 1.646 15.306 12.8 7.737 20.37-4.056 4.056-8.827 4.83-14.958 2.427a38.339 38.339 0 00-7.275-1.485 37.983 37.983 0 01-7.322-1.509 47.321 47.321 0 00-5.473-1.657c-13.789-3.2-14.008-20.1-.3-23.466.784-.193 1.531-.376 1.662-.407s2.907.581 6.17 1.361m86.862 10.787c-6.468 2.249-9.534 4.129-10.488 6.431-.3.723-.708 1.316-.91 1.316-2.665 0-2.517 14.63.181 17.9a9.955 9.955 0 011.393 2.158 2.664 2.664 0 001.386 1.264 14.724 14.724 0 012.637 1.6c4.6 3.458 12.5 3.043 18.686-.982 7.216-4.694 8.162-18.583 1.689-24.789-3.679-3.528-11.224-6.062-14.574-4.9m6.188 9.764c2.557 1.288 3.777 3.442 3.779 6.668 0 6.134-6.289 9.947-11.012 6.674-8.174-5.665-1.6-17.8 7.233-13.343" />
		<path d="M53.909 2.833c-5.591 2.776-5.394 1.25-5.407 41.829-.01 31-.088 34.51-.763 34.768-1.382.532-2.625.3-4.623-.872-2.818-1.649-10.744-2.447-17.64-1.776-10.792 1.052-20.984 10.055-22.5 19.876-1.646 10.655.037 17.37 6.456 25.778 2.656 3.478 8.309 7.786 13.36 10.18 1.9.9 2.471 1.4 2.255 1.96a4.712 4.712 0 00-.289 1.389 11.378 11.378 0 01-2.307 3.165 26.083 26.083 0 00-3.378 4.666 18.771 18.771 0 01-1.71 2.866c-2.478 2.829-2.426 18.907.07 21.815a15.321 15.321 0 011.528 2.848 26.779 26.779 0 004.068 5.528c3.675 3.96 3.748 4.4 1.307 7.8-7.15 9.987-7.015 24.3.315 33.157 3.319 4.01 3.331 4.283.409 8.723-10.98 16.684-2.6 39.363 15.742 42.611 7.753 1.372 7.65 1.172 7.8 15.289l.12 11.158 1.448 1.824a13.081 13.081 0 003.7 2.95l2.249 1.128 72.88-.509c54.461-.381 73.05-.65 73.552-1.067 1.851-1.536-.122-4-3.588-4.474-3.435-.472-8.679-4.1-11.75-8.119-9.542-12.5-3.707-30.855 11.219-35.3 3.77-1.124 6-2.668 7.4-5.13 2.18-3.838 1.9-5.389-1.9-10.494l-2.607-3.507v-65.71l1.621-2.123c4.265-5.584 11.388-5.189 14.1.78.824 1.811.873 4.146.887 42.027.014 38.469.214 47.405 1.494 66.976.57 8.7.564 8.856-.437 10.443-3.973 6.3-4.421 9.559-1.79 13.009 2.529 3.315 3.4 3.578 11.419 3.44l7.12-.124.821-1.678c.773-1.578.822-10.25.852-146.726.035-162.927.408-147.111-3.538-149.79l-1.933-1.313-88.048-.121c-87.617-.12-88.058-.116-89.987.842m178.35 1.28a8.245 8.245 0 013.222 2.453c.793 1.679.709 291.46-.085 293.2l-.566 1.243-6.19-.218c-10.79-.381-14.5-4.729-10.229-11.99 2.874-4.887 2.782-4.252 2.336-16.156-.225-6.014-.626-13.384-.891-16.376-.278-3.155-.482-22.593-.485-46.276 0-43.823-.02-44.111-2.411-47.122-3.435-4.323-10.632-3.982-14.433.685l-2.146 2.634v33.689c0 32.775.084 34.956 1.389 36 2.662 2.126 4.407 6.338 3.6 8.69-1.275 3.707-3.013 5.073-8.258 6.485a16.054 16.054 0 00-4.162 2.163 135.906 135.906 0 01-3.651 2.558 8.985 8.985 0 00-2.135 2.072l-2.557 3.847a21.5 21.5 0 00-2.75 18.4c1.377 4.454 6.118 11.206 8.741 12.451a8 8 0 012.245 1.547 7.2 7.2 0 002.083 1.459c3.9 1.82 5.251 2.9 4.009 3.207-.638.157-33.589.331-73.223.388l-72.06.1-1.867-2-1.866-2v-10.702c0-13.967-.409-15.016-6.226-15.947-20.889-3.346-29.124-26.62-15.629-44.176 1.5-1.954-.234-6.334-3.246-8.2-.8-.492-3.795-8.9-4.351-12.207-.913-5.416 1.229-13.845 4.658-18.338 2.4-3.148 2.782-5.578 1.128-7.232-2.834-2.834-6.129-6.949-6.457-8.062a14.518 14.518 0 00-1.607-3.045c-1.235-1.826-1.257-2-1.257-9.738v-7.876l1.542-2.328a11.959 11.959 0 001.546-2.84 22.671 22.671 0 013.084-4.072c4.639-5.36 4.686-6.772.3-8.988-7.535-3.8-13.719-9.424-16.617-15.1a8.939 8.939 0 00-1.427-2.218c-.827-.511-1.606-8.148-1.395-13.678.354-9.229 4.519-15.194 14.393-20.608l3.322-1.821h18.037l2.648 1.538c3.228 1.874 5.72 2.051 6.818.483.653-.932.738-5.207.738-36.7V7.75l1.306-1.246a31.7 31.7 0 012.966-2.422l1.662-1.175 86.861-.057 86.862-.058 2.688 1.322M69.375 17.437c-5.691.465-5.256-4.576-5.11 59.2.15 65.413-.642 58.893 7.247 59.737a21.341 21.341 0 015.933 2.039c2.786 1.4 4.127 1.79 6.171 1.807l2.61.022-.126-1.9c-.777-11.635-.687-14.93.5-18.636a43.1 43.1 0 001.529-6.757c.382-3.366 5.835-14.92 8.6-18.219.751-.9 2.006-2.416 2.79-3.377a53.645 53.645 0 018.828-8.308 50.145 50.145 0 005.424-3.87 11.59 11.59 0 013.061-1.584 11.071 11.071 0 002.838-1.41c1.966-1.779 16.66-4.99 22.879-5 6.823-.01 21.574 3.095 23.656 4.979a11.029 11.029 0 002.86 1.429 11.452 11.452 0 013.061 1.6c.529.471 2.458 1.836 4.286 3.033 3 1.967 10.679 8.955 10.679 9.719a6.126 6.126 0 001.265 1.632c1.541 1.609 2.912 3.847 5.037 8.225a50.217 50.217 0 002.8 5.061 9.652 9.652 0 011.478 4.747 28.589 28.589 0 001.324 5.855c1.447 3.975 1.621 18.06.271 21.952-1.672 4.822.177 6.887 5.165 5.772 4.278-.956 6.712-1.018 9.395-.237 3.216.935 5.547.963 6.752.082.9-.66.924-1.925 1.046-62.856l.126-62.183-1.075-1.243-1.076-1.241-74.282-.1c-40.857-.054-75.032-.037-75.946.037m150.507 2.409c1.16 1.432 1.439 120.745.289 123-.7 1.365-2.046 1.439-7.615.423a13.314 13.314 0 00-5.962-.033c-6.148 1.27-6.552.811-5.716-6.487.6-5.251.333-16.387-.471-19.534-.234-.914-.962-3.766-1.621-6.339a22.711 22.711 0 00-1.915-5.471 20.471 20.471 0 01-2-3.629c-5.863-12.927-19.551-24.354-35.581-29.7l-4.71-1.572h-23.259l-4.746 1.581c-15.236 5.075-28.27 15.692-34.666 28.236-1.211 2.375-2.618 5-3.126 5.824a19.89 19.89 0 00-1.589 5.222 38.81 38.81 0 01-1.5 5.852c-.683 1.734-.864 3.862-.966 11.324-.153 11.263-.783 12.085-6.615 8.644a20.712 20.712 0 00-5.485-1.708c-4.423-.778-5.385-1.244-6.326-3.063-1.086-2.1-1.088-111.6 0-112.5 1.516-1.258 5.909-1.328 78.239-1.258l74.444.073.906 1.12M106.961 34.691c-4.288 1.237-4.173 8.816.152 9.986 9.214 2.494 16.066-1.865 12.815-8.153-1.134-2.19-8.239-3.194-12.967-1.832m24.833.272c-2.841.679-5.312 4.749-4.427 7.293 1.437 4.12 3.942 4.506 29.109 4.488l20.884-.014 2.28-1.34c4.346-2.555 4.1-8.209-.438-10.106-1.539-.643-44.832-.936-47.409-.321m-14.767.592c3.483 1.324 3.42 6.979-.091 8.137-2.855.942-10.058.3-11.1-1-3.806-4.7 4.194-9.8 11.2-7.142m61.518.878c3.342 1.633 3.906 5.431 1.148 7.721-1.071.89-44.067 1.281-47.228.429-5.406-1.455-5.429-5.972-.042-8.365 2.269-1.008 44.021-.814 46.123.215m-39.631 45.005c-7.916.779-9.978 1.228-12.549 2.734a32.738 32.738 0 01-4.883 2.312c-5.068 1.726-15.773 11.745-18.647 17.453a18.538 18.538 0 01-2.083 3.52 5.244 5.244 0 00-.994 2.053 37.218 37.218 0 01-1.773 4.307c-2.123 4.365-2.1 27.517.026 29.9a12.509 12.509 0 011.5 3.517 9.344 9.344 0 001.243 3 28.1 28.1 0 012.594 4.4 77.763 77.763 0 005.628 9.4c.5.751 1.6 2.432 2.44 3.737 7.071 10.969 9.422 14.422 11.615 17.066.66.8 2 2.621 2.98 4.057 2.1 3.089 3.936 5.657 4.736 6.645.318.392.989 1.354 1.491 2.137a12.288 12.288 0 001.45 1.9 37.791 37.791 0 012.72 3.8c5.067 7.712 7.927 7.928 12.591.95.7-1.045 2.512-3.607 4.033-5.7s3.24-4.47 3.819-5.293c1.4-1.992 3.327-4.617 6.63-9.037a21.42 21.42 0 002.729-4.249 1.334 1.334 0 01.6-.976c.7-.448 5.412-7.245 5.929-8.563a12.032 12.032 0 011.45-2.295 39.432 39.432 0 004.213-6.373 16.141 16.141 0 011.85-2.848c1.185-1.367 5.9-10.341 5.9-11.23a6.842 6.842 0 011.122-2.247c1.245-1.835 1.422-2.713 2.243-11.1.769-7.863-.419-20.38-2.127-22.4a10.527 10.527 0 01-1.243-2.381 47.137 47.137 0 00-7.3-11.826c-4.367-4.633-8.822-8.584-9.677-8.584a2.864 2.864 0 01-1.275-.932 6.9 6.9 0 00-2.566-1.475 42.5 42.5 0 01-5.156-2.367c-4.258-2.261-14.321-3.682-21.249-3m12.1 1.614a17.606 17.606 0 016.882 1.724c1.306.69 2.895 1.49 3.531 1.777 11.761 5.313 19.048 12.946 24.7 25.871 3.189 7.3 3.189 25.609 0 32.56-2.719 5.928-5.784 11.844-6.639 12.816a19.094 19.094 0 00-1.852 2.848 95.913 95.913 0 01-5.306 8.361c-.94 1.406-2.046 3.09-2.459 3.743s-2.474 3.643-4.581 6.645-4.721 6.74-5.811 8.307a28.221 28.221 0 01-2.364 3.107 41.53 41.53 0 00-2.883 3.87c-7.8 11.261-9.419 13.2-11.037 13.2-1.408 0-3.076-1.359-4.762-3.88-.755-1.129-2.13-3-3.057-4.158s-2.751-3.641-4.057-5.52-3.655-5.17-5.22-7.314-3.738-5.213-4.825-6.82-2.5-3.564-3.136-4.348a62.129 62.129 0 01-3.442-5.22c-1.255-2.088-2.684-4.331-3.174-4.984a82.231 82.231 0 01-6.065-9.73c-1.124-2.09-2.657-4.785-3.409-5.993a21.342 21.342 0 01-2.023-4.509 55.182 55.182 0 00-1.51-4.45c-.726-1.815-.856-3.631-.864-12.1l-.01-9.968 1.767-4.932a41.017 41.017 0 012.283-5.555 36.373 36.373 0 002.051-3.551c2.942-5.507 10.629-13.125 16.164-16.02 11.819-6.181 17.361-7.212 31.09-5.785M26.594 92.473c-4.835.726-8.12 4.708-8.193 9.93-.109 7.754 3.216 12.1 12.764 16.679a57.451 57.451 0 015.934 3.125 9.44 9.44 0 002.834 1.183 10.724 10.724 0 013.478 1.705 4.722 4.722 0 003.183 1.14c3.382 0 3.383-.009 3.225-13.619l-.142-12.082-1.661-1.4c-5.5-4.626-15.1-7.613-21.422-6.663m13.828 3.828a63.478 63.478 0 016.526 3.666l1.543 1.16v11.791c0 10.315-.094 11.828-.752 12.079a2.7 2.7 0 01-3.267-.643 7.114 7.114 0 00-2.566-1.5 62.878 62.878 0 01-6.232-2.929c-2.48-1.3-5.7-2.958-7.159-3.686-5.715-2.86-9.151-7.959-9.1-13.5l.036-3.8 2.441-2.248c4.635-4.268 10.572-4.394 18.529-.393m94 2.942a22.345 22.345 0 00-6.17 2c-.922.6-2.637 1.7-3.812 2.445a35.626 35.626 0 00-11.493 12.76l-2.949 5.245.088 3.886c.073 3.238-.069 4.084-.852 5.079-1.622 2.062-1.7 3.868-.231 5.146 1.166 1.014 1.251 1.316.981 3.486-.345 2.762.454 7.032 1.638 8.762.454.661 1.8 2.818 3 4.791 12.634 20.822 45.4 20.36 57.291-.807a33.343 33.343 0 012.259-3.594c.941-1.1 1.987-5.732 2-8.842a5.676 5.676 0 01.956-3.743c1.272-1.616 1.2-2.956-.293-5.15-1.066-1.572-1.206-2.177-.988-4.288.686-6.658-7.514-19.419-14.937-23.243a24.779 24.779 0 01-3.017-1.905c-3.421-2.6-15.445-3.638-23.47-2.028m17.531 1.422c5.609.849 15.411 7.934 18.067 13.058.385.742 1.523 2.6 2.531 4.138 1.872 2.85 2.559 5.46 2.013 7.639l-.307 1.222-1.371-1.013a8.36 8.36 0 01-2.208-3.211 32.033 32.033 0 00-18.444-18.264c-4.8-1.7-13.034-2.039-16.2-.673a30.344 30.344 0 01-3.826 1.3c-3.6.911-11.272 7.091-13 10.479a7.582 7.582 0 01-1.454 2.139c-.579.357-1.62 2.573-2.777 5.908-.652 1.878-.927 2.154-2.284 2.285-2.248.216-2.2-2.5.108-6.388.908-1.53 2.07-3.675 2.582-4.769 1.38-2.948 9.965-11.064 11.7-11.064a15.222 15.222 0 002.184-1.238c3.544-2.237 13.61-2.924 22.686-1.549m-3.2 4.232c9.84 2.006 16.634 7.916 20.772 18.07 2.547 6.249 2.215 6.59-6.4 6.59-7.439 0-8.189-.224-11.357-3.392-4.99-4.99-11.706-5.575-16.009-1.395-.694.675-2.025 1.975-2.958 2.888l-1.7 1.661-6.47.157c-7.273.176-8.492 0-9.211-1.345-1.1-2.062 3.943-12.576 7.665-15.967 2.559-2.331 8.882-6.211 10.636-6.526 1.03-.186 3.154-.628 4.72-.985 3.915-.89 4.856-.868 10.311.244m-.434 20.033c6.684 6.437 6.374 6.336 18.143 5.919l7.643-.271 1.511 1.412c3.524 3.294 1.309 4.167-9.757 3.85-10.4-.3-10.464-.284-13.971 3.254-5.742 5.8-12.24 5.532-18.58-.756l-2.764-2.739-9.686.224c-9.4.216-9.715.193-10.63-.78-1.972-2.1 1.8-5.35 5.135-4.428a54.448 54.448 0 008.817.291l7.143-.171 2.6-2.488a12.119 12.119 0 013.2-2.489.654.654 0 00.608-.688c0-2.341 8.192-2.451 10.588-.142m-9 2.177c-2.275 1.661-2.955 3.38-2.849 7.2.09 3.24.245 3.476 3.3 5.011 6.73 3.39 11.513-2.023 8.868-10.038-1.141-3.457-6-4.588-9.314-2.17m7.165 3.505c.832 1.187 1.021 5.834.257 6.306a16.553 16.553 0 01-4.262-.032l-3.78-.33-.314-1.673c-.776-4.142 5.771-7.6 8.1-4.271m-13.762 9c6.944 7.247 14.5 7.405 20.114.42 2-2.489 4.051-3.022 10.8-2.807 7.5.237 8.054.985 5.468 7.335-5.4 13.241-18.734 19.786-33.808 16.591-7.838-1.661-16.652-10.022-19.008-18.033-1.642-5.584-1.07-6 8.026-5.84l6.281.111 2.128 2.222m41.923 3.2c-.205 2.866-1.711 6.383-3.265 7.627a12.894 12.894 0 00-1.274 2.135c-4.178 8.122-16.091 14.478-27.137 14.478-4.486 0-13.173-1.986-15.431-3.526-6.776-4.624-10.039-7.81-12.675-12.375-4.157-7.2-5.058-11.629-2.365-11.629 1.266 0 1.427.234 2.611 3.831 6.534 19.833 31.047 26.51 47.2 12.859 3.522-2.976 9.12-11.75 9.12-14.294a6.5 6.5 0 011.295-2.171c1.7-2.127 2.231-1.276 1.92 3.065m-135.07 3.257a8.76 8.76 0 01-2.362 1.476 13.062 13.062 0 00-5.768 6.522c-2.106 7.583 2.6 14.125 10.874 15.11a12.245 12.245 0 014.1 1.234c.827.511 4.649 1.554 8.549 2.332 3.88.775 8.089 1.652 9.354 1.949 6.771 1.588 11.761-.57 14.767-6.384 4.167-8.058-.654-15.43-11.635-17.8-2.5-.538-5.15-1.211-5.9-1.5a41.936 41.936 0 00-6.619-1.013c-3.915-.367-5.826-.785-7.5-1.64-2.8-1.428-6.587-1.57-7.86-.3m6.4 1.292a27.429 27.429 0 005.087 1.218c18.027 2.672 24.375 5.108 26.858 10.306 4.352 9.109-3.319 16.668-14.325 14.117-1.648-.381-5.2-1.024-7.886-1.427a40.724 40.724 0 01-7.594-1.863 25.468 25.468 0 00-5.316-1.48c-9.312-1.245-13.926-10.783-8.188-16.924 3.7-3.954 7.874-5.406 11.364-3.947m49.351 19.917a14.745 14.745 0 00-1.731 3.916c-1.172 3.659-3.734 8.506-5.193 9.826s-1.218 2.431 1.055 4.919c5.079 5.563 6.895 8.143 7.408 10.54a28.856 28.856 0 001.241 4.135c.87 2.082 1.061 9.5.281 10.955a25.649 25.649 0 00-1.274 4.205 9.744 9.744 0 01-2.571 5.2c-4.325 4.691-4.367 6.777-.228 11.106a10.233 10.233 0 012.6 4.272 9.066 9.066 0 001.227 2.886c2.039 2.289 2.093 13.253.088 17.568a27.691 27.691 0 00-1.5 3.853c-.407 1.715-9.419 10.717-11.113 11.1a42.239 42.239 0 00-4.372 1.531c-2.813 1.131-3.615 1.234-9.083 1.16-7.478-.1-7.766.1-7.766 5.287 0 4.406.825 5.8 3.669 6.207 6.4.914 96.216.012 97.2-.976.922-.921.994-1.6 1.115-10.442.125-9.019.189-9.6 1.4-12.543 2.175-5.279 5.244-11.038 6.73-12.633a65.611 65.611 0 016.264-6.116 21.182 21.182 0 003.075-3.275l1.34-1.851-.006-29.714c0-16.343-.135-30.193-.293-30.781-.721-2.69-4.759-.618-7.487 3.839a42.527 42.527 0 01-4.345 6.247 41.024 41.024 0 00-3.178 4.509c-1.427 2.22-3.059 4.569-3.628 5.222s-1.983 2.574-3.144 4.272c-5.656 8.263-6.553 9.492-6.926 9.492-.221 0-.842.8-1.38 1.78a24.843 24.843 0 01-3.968 5.521 23.143 23.143 0 00-2.342 2.775c-3.89 5.2-6.2 5.978-8.669 2.918-.763-.946-2.462-3.028-3.775-4.627s-2.761-3.442-3.218-4.1-1.411-1.952-2.122-2.888c-2.446-3.222-6.991-9.548-8.775-12.211a39.633 39.633 0 00-3.142-4.109 23.382 23.382 0 01-2.678-3.812 39.341 39.341 0 00-3.037-4.509c-.942-1.175-2.77-3.738-4.061-5.7s-2.522-3.774-2.735-4.035-1.671-2.5-3.238-4.984c-3.9-6.17-5.933-7.733-7.722-5.944m4.747 3.743c.739 1.139 2.116 3.221 3.057 4.628s2.543 3.808 3.56 5.339 2.639 3.88 3.6 5.222 3.059 4.4 4.653 6.791a45.6 45.6 0 003.617 4.95 26.968 26.968 0 012.738 3.717c3.784 5.845 14.451 19.827 17.673 23.165 4.062 4.209 8.879 1.108 16.841-10.839.627-.941 2.741-3.8 4.7-6.357a74.337 74.337 0 004.509-6.415 30.1 30.1 0 012.9-4.087c1.075-1.275 2.934-3.812 4.132-5.64s2.823-4.177 3.608-5.22a37.541 37.541 0 002.347-3.56c1.4-2.537 3.75-4.112 4.7-3.159.888.888.851-.878.7 33.024l-.117 26.306-4.884 4.784c-10.284 10.075-13.189 16.947-13.317 31.5l-.073 8.385-1.187.6c-.934.472-11.316.6-48.555.608l-47.368.006-1.165-1.165c-.955-.955-1.166-1.637-1.166-3.77 0-3.687.694-4.083 7.139-4.083a28.069 28.069 0 0025.367-15.175c4.61-9.152 3.081-22.9-3.337-30.043-2.83-3.148-2.744-4.77.446-8.3 4.555-5.042 6.4-17.91 3.531-24.562-.678-1.567-1.392-3.374-1.589-4.016-.329-1.071-5.275-7.212-6.705-8.325-1.626-1.266-1.525-2.757.371-5.455a39.852 39.852 0 003.389-6.393c1.5-3.651 1.963-4.143 4.216-4.481a6.671 6.671 0 011.662 2.024m-57.275 18.553c-8.361 3.6-10.458 12.354-4.638 19.358a8.073 8.073 0 004.083 2.943c1.219.383 3.1 1.016 4.173 1.408a36.276 36.276 0 006.436 1.17 19.883 19.883 0 016.4 1.46c4.556 2.375 14.948 3.424 17.855 1.8 6.09-3.4 8.647-9.956 6.079-15.592-2.583-5.67-6.286-7.829-15.1-8.8-3.777-.417-6.425-.963-7.594-1.57a21.933 21.933 0 00-5.316-1.474 38.5 38.5 0 01-5.4-1.2c-2.578-.91-3.938-.812-6.982.5m9.062 1.264a32.142 32.142 0 016.634 1.631 40.936 40.936 0 007.832 1.829c9.182 1.286 13.679 3.376 15.144 7.037 4.873 12.178-5.381 19.364-19.881 13.933a39.293 39.293 0 00-6.637-1.636 64.4 64.4 0 01-6.882-1.453 256.853 256.853 0 00-5.4-1.48c-6.126-1.573-8.383-10.509-4.108-16.246 2.94-3.942 5.52-4.644 13.3-3.614m-5.977 39.79c-13.7 3.366-13.485 20.268.3 23.466a47.3 47.3 0 015.473 1.657 37.985 37.985 0 007.322 1.509 38.331 38.331 0 017.275 1.485c6.13 2.4 10.9 1.628 14.958-2.427 7.57-7.57 3.333-18.724-7.737-20.37a21.579 21.579 0 01-5-1.3 20.749 20.749 0 00-5.202-1.202c-1.991-.232-6.287-1.061-9.552-1.842s-6.039-1.392-6.17-1.361-.878.214-1.662.407m5.279 1.86a53.037 53.037 0 007.494 1.468 52.077 52.077 0 017.357 1.431 54.665 54.665 0 006.138 1.429c12.488 2.1 16.045 14.334 5.925 20.387-3.1 1.856-6.244 2.036-9.96.573a36.066 36.066 0 00-7.32-1.424 33.709 33.709 0 01-6.786-1.258 65.487 65.487 0 00-6.285-1.918c-6.02-1.564-7.951-2.841-9.491-6.276-2.386-5.318-.573-11.214 4.08-13.259 5.206-2.29 5.239-2.294 8.847-1.152m88.7 8.539c-3.57 1.343-8.325 3.993-9.207 5.128-4.69 6.041-4.972 6.875-4.7 13.924.786 20.579 30.594 22.714 34.576 2.477 1.156-5.877-.47-12.047-4.2-15.927-3.765-3.918-12.788-6.987-16.47-5.6m9.087 2.505c9.081 3.516 12.814 12.237 9.422 22.01-3.01 8.67-16.383 12.917-23.6 7.5a14.72 14.72 0 00-2.637-1.6 2.664 2.664 0 01-1.386-1.264 9.957 9.957 0 00-1.379-2.157c-2.7-3.274-2.845-17.9-.181-17.9.2 0 .611-.592.91-1.316.953-2.3 4.02-4.182 10.488-6.431 1.829-.636 4.793-.225 8.375 1.162m-8.612 8.2c-5.658 2.514-6.1 10.071-.807 13.741 6.175 4.278 13.7-3.568 10.181-10.614-1.515-3.033-6.126-4.571-9.374-3.127m5.593 1.392c4.622 1.931 4.576 8.491-.078 11.43-2.378 1.5-4.276 1.147-6.752-1.256a6.207 6.207 0 016.83-10.174" />
		<path d="M53.837 1.886a14.66 14.66 0 00-5.157 4.831c-.551 1.063-.664 7.211-.664 36.158 0 39.369.091 38.526-3.852 35.5-4.721-3.622-22.046-3.486-27.657.218-1.075.71-2.741 1.807-3.7 2.437a47.568 47.568 0 00-7.941 8.188c-4.239 5.618-4.3 21.065-.113 27.628 5.3 8.309 8.6 11.4 17.112 16.037 2.818 1.536 2.715 2.484-.708 6.52a15.22 15.22 0 00-2.567 3.645 4.688 4.688 0 01-1.006 1.9c-5.719 7.27-3.305 23.347 4.84 32.235 3.206 3.5 3.4 4.418 1.449 6.891a42.383 42.383 0 00-3.2 5.29l-1.841 3.56v16.138l1.835 3.56a40.03 40.03 0 003.436 5.532c3.006 3.7 2.993 4.236-.2 8.841-4 5.756-6.083 15.753-4.439 21.251 3.528 11.793 11.77 20.028 21.644 21.626 3.13.506 4.01.854 5.222 2.065l1.458 1.457.274 11.5c.151 6.326.312 11.555.356 11.619a24.14 24.14 0 004.9 4.667c1.421.734 101.567.926 135.2.26l14.947-.3.624-1.306c1.253-2.618-1.538-5.092-5.753-5.1-2.056 0-7.765-4.276-10.674-7.985-5.709-7.283-5.779-19.688-.148-25.929a11.475 11.475 0 001.3-1.752c1.083-2 6.234-5.178 10.574-6.529 9.018-2.807 10.793-9.463 4.616-17.316l-2.191-2.787V167.66l1.459-1.845c3.351-4.24 6.951-5.241 10.456-2.907 3.735 2.488 3.477-1.223 3.8 54.461.255 44.372.7 62.093 1.623 65.047.126.4-.71 2.3-1.857 4.22-6.008 10.041-1.452 16.146 12.053 16.148 7.848 0 8.074-.157 8.582-5.968.2-2.318.383-68.264.4-146.547l.035-142.332-1.045-1.837a11.423 11.423 0 00-2.926-3.151L232.5 1.637l-88.8-.09c-51.979-.053-89.241.088-89.862.339m180.039 1.539c3.946 2.679 3.572-13.136 3.538 149.79-.03 136.476-.079 145.148-.852 146.726l-.821 1.678-7.123.129c-8.016.138-8.89-.125-11.419-3.44-2.631-3.45-2.182-6.707 1.79-13.009 1-1.588 1.006-1.74.436-10.443-1.28-19.571-1.48-28.507-1.494-66.976-.014-37.881-.063-40.215-.887-42.027-2.712-5.97-9.835-6.364-14.1-.78l-1.621 2.123v65.71l2.607 3.507c3.8 5.105 4.077 6.656 1.9 10.494-1.4 2.462-3.627 4.006-7.4 5.13-14.925 4.445-20.76 22.8-11.219 35.3 3.071 4.024 8.315 7.647 11.75 8.119 3.466.476 5.439 2.938 3.588 4.473-.5.417-19.091.686-73.552 1.067l-72.88.509-2.249-1.128a13.081 13.081 0 01-3.7-2.95l-1.448-1.824-.12-11.158c-.152-14.117-.049-13.917-7.8-15.289-18.343-3.248-26.721-25.928-15.742-42.611 2.922-4.44 2.909-4.713-.409-8.723-7.33-8.861-7.466-23.17-.315-33.157 2.441-3.408 2.368-3.844-1.307-7.8a26.78 26.78 0 01-4.068-5.528 15.319 15.319 0 00-1.532-2.849c-2.5-2.908-2.548-18.986-.07-21.815a18.77 18.77 0 001.71-2.866 26.086 26.086 0 013.378-4.666 11.378 11.378 0 002.307-3.165 4.711 4.711 0 01.289-1.389c.215-.561-.36-1.061-2.255-1.96-12.919-6.123-20.262-16.712-20.326-29.312-.046-9.047 1.98-13.944 8.036-19.424 5.131-4.643 9.1-6.526 14.975-7.1 6.9-.671 14.822.126 17.64 1.776 2 1.168 3.241 1.4 4.623.872.675-.258.753-3.771.763-34.768.011-36.168.075-37.325 2.165-39.507 3.455-3.606-5.57-3.3 93.229-3.164l88.048.121 1.933 1.313M68.547 18.948c-3.225.772-2.97-4.106-2.97 56.817 0 65.04-.79 58.334 7.043 59.712a20.711 20.711 0 015.485 1.708c5.832 3.441 6.462 2.619 6.615-8.644.1-7.462.283-9.59.966-11.324a38.815 38.815 0 001.5-5.852 19.887 19.887 0 011.589-5.222c.508-.827 1.915-3.449 3.126-5.824 6.4-12.544 19.43-23.162 34.666-28.236l4.746-1.581h23.258l4.71 1.572c16.03 5.35 29.717 16.777 35.581 29.7a20.447 20.447 0 002 3.629 22.73 22.73 0 011.915 5.471c.659 2.573 1.387 5.426 1.621 6.339.8 3.147 1.072 14.283.471 19.534-.836 7.3-.432 7.756 5.716 6.487a13.312 13.312 0 015.962.033c5.569 1.016 6.919.942 7.615-.423 1.15-2.257.87-121.57-.289-123l-.906-1.12-74.436-.076c-40.945-.041-75.137.093-75.984.3m150.489 1.083c.744.551.8 4.894.814 61.348.012 68.111.318 62.473-3.332 61.625a64.286 64.286 0 00-8.307-.39h-6.645l.159-9.494c.218-12.948-1.155-22.369-3.976-27.293-.375-.652-1.422-2.726-2.327-4.61-2.558-5.318-4.094-7.423-10.086-13.828-6.264-6.7-13.9-11.608-23.879-15.351l-5.458-2.048h-26.106l-4.877 1.774c-18.866 6.864-35.759 24.235-38.533 39.625a26 26 0 01-1.327 4.746c-.628 1.418-.848 3.889-1.05 11.763l-.255 9.967-1.264.146a8.946 8.946 0 01-3.89-1.255 16.819 16.819 0 00-5.5-1.735c-3.627-.422-5.759-1.8-6.564-4.241-1.151-3.494-.6-109.809.575-110.667 1.288-.942 150.555-1.021 151.825-.08M106.519 34.207c-5.9 1.705-4.514 10 1.9 11.362 9.344 1.983 15.514-2.582 12.219-9.04-1.364-2.672-8.721-3.881-14.121-2.322m10.913.444c4.192 1.163 4.522 8.1.466 9.789-1.847.773-8.288.914-10.788.236-4.325-1.17-4.44-8.749-.152-9.986a30.131 30.131 0 0110.474-.04m11.884 1.042c-4.083 3.5-4 6.817.249 9.9l2.227 1.615h47.079l2.15-1.759c3.42-2.8 3.468-6.882.116-9.825l-1.674-1.475h-48.348l-1.8 1.542m49.884-.409c4.539 1.9 4.784 7.551.438 10.106l-2.28 1.34-20.884.014c-25.167.017-27.672-.368-29.109-4.488-.885-2.543 1.585-6.614 4.427-7.293 2.577-.615 45.869-.322 47.409.322m-44.8 47.813c-3.531.406-6.611 1.626-14.477 5.74-5.536 2.895-13.223 10.513-16.164 16.02a36.343 36.343 0 01-2.072 3.533 41.021 41.021 0 00-2.283 5.556l-1.767 4.932.01 9.968c.009 8.471.139 10.287.864 12.1a55.182 55.182 0 011.51 4.45 21.334 21.334 0 002.023 4.509c.752 1.208 2.285 3.9 3.409 5.993a82.232 82.232 0 006.065 9.73c.49.653 1.919 2.9 3.174 4.984a62.148 62.148 0 003.442 5.22c.637.784 2.049 2.74 3.136 4.347s3.258 4.676 4.825 6.82 3.916 5.436 5.22 7.314 3.131 4.362 4.057 5.52 2.3 3.029 3.057 4.158c1.685 2.521 3.353 3.88 4.762 3.88 1.617 0 3.236-1.935 11.037-13.2a41.548 41.548 0 012.883-3.87 28.217 28.217 0 002.364-3.107c1.09-1.567 3.706-5.3 5.811-8.307s4.168-5.992 4.581-6.645 1.52-2.337 2.459-3.743a95.937 95.937 0 005.306-8.361 19.1 19.1 0 011.852-2.848c.854-.972 3.92-6.888 6.639-12.816 3.19-6.951 3.19-25.262 0-32.56-5.649-12.925-12.936-20.558-24.7-25.871-.637-.287-2.226-1.087-3.531-1.777-3.75-1.983-14.276-2.735-23.5-1.678m18.441.915c4.258.69 14.6 5.814 18.339 9.086 13.194 11.544 17.733 23.048 16.383 41.522-.628 8.6-5.05 18.268-14.84 32.457-2.714 3.932-6.671 9.919-7.477 11.313-.4.684-1.678 2.487-2.849 4.006s-2.825 3.868-3.676 5.22a19.314 19.314 0 01-2.137 2.934 15.744 15.744 0 00-1.876 2.373c-.709 1.044-1.934 2.752-2.724 3.8s-2.192 3.021-3.117 4.391c-4.49 6.654-6.2 7.329-9.021 3.56-.927-1.24-2.426-3.216-3.327-4.391s-2.443-3.287-3.423-4.692-2.208-3.136-2.73-3.845-1.583-2.229-2.357-3.377-2.175-3.049-3.111-4.224-2.524-3.418-3.525-4.984a26.425 26.425 0 00-2.38-3.322 35.386 35.386 0 01-2.83-4.272c-1.249-2.088-2.86-4.549-3.581-5.468a31.213 31.213 0 01-2.339-3.56c-.568-1.039-1.661-2.85-2.43-4.025s-2-3.311-2.741-4.747-1.915-3.509-2.614-4.608a15.662 15.662 0 01-1.747-4.124 35.714 35.714 0 00-1.506-4.648c-1.735-4.245-1.6-18.06.228-23.88 3.057-9.719 7.631-16.742 15.022-23.057 4.443-3.8 14-8.639 18.535-9.391a110.556 110.556 0 0119.852-.044M25.84 93.972a14.507 14.507 0 00-3.958 2.713l-2.441 2.248-.036 3.8c-.052 5.541 3.384 10.64 9.1 13.5a548.47 548.47 0 017.159 3.686 62.865 62.865 0 006.232 2.929 7.114 7.114 0 012.566 1.5 2.7 2.7 0 003.267.643c.658-.251.752-1.764.752-12.079v-11.785l-1.543-1.16c-6.489-4.88-15.952-7.565-21.1-5.986m14.781 3.236c7.912 3.865 7.4 2.807 7.4 15.193 0 5.733-.13 10.764-.288 11.175-.362.943-2.254.979-3.019.058a3.854 3.854 0 00-1.6-1 116.051 116.051 0 01-12.179-6.123 8.747 8.747 0 00-2.4-1.149c-4.2-1.344-8.521-7.624-8.521-12.37 0-8.626 9.394-11.263 20.607-5.785m96.646.576c-4 .707-8.786 2.243-10.039 3.22a20.188 20.188 0 01-2.631 1.651c-3.013 1.546-9.431 8.19-11.369 11.771a902.176 902.176 0 01-2.764 5.074c-.638 1.159-.983 2.917-1.128 5.74s-.46 4.43-1.039 5.258q-2.248 3.216-.328 5.513c.951 1.14 1.183 2.054 1.391 5.459.267 4.38.273 4.4 4.036 10.783 12.873 21.842 46.578 22.3 58.726.79.737-1.3 1.825-3.121 2.417-4.035 1.063-1.641 1.757-4.444 2.338-9.45a10.112 10.112 0 01.984-3.546c.976-1.393.848-3.565-.336-5.759a8.35 8.35 0 01-.973-4.263c.143-7.142-6.72-18.066-14.19-22.584a47.67 47.67 0 01-3.56-2.42c-3.342-2.561-15.2-4.323-21.537-3.2m13.774 1.411c3.828.69 5.831 1.295 6.848 2.066a24.769 24.769 0 003.017 1.905c7.422 3.824 15.623 16.585 14.937 23.243-.218 2.111-.078 2.717.988 4.288 1.489 2.194 1.565 3.534.293 5.15a5.675 5.675 0 00-.956 3.743c-.01 3.11-1.056 7.743-2 8.842a33.338 33.338 0 00-2.259 3.594c-11.889 21.167-44.657 21.63-57.291.807-1.2-1.973-2.548-4.13-3-4.791-1.184-1.73-1.983-6-1.638-8.762.271-2.17.185-2.472-.981-3.486-1.473-1.279-1.391-3.084.231-5.146.783-1 .925-1.841.852-5.079l-.088-3.886 2.949-5.245a35.625 35.625 0 0111.493-12.76c1.175-.741 2.89-1.841 3.812-2.444 4.068-2.667 14.245-3.577 22.792-2.039m-12.6 5.449c-1.565.357-3.69.8-4.72.985-1.755.315-8.077 4.2-10.636 6.526-3.722 3.39-8.769 13.9-7.665 15.967.718 1.343 1.938 1.521 9.21 1.345l6.47-.157 1.7-1.661c.932-.914 2.264-2.213 2.958-2.888 4.3-4.181 11.018-3.6 16.009 1.395 3.168 3.168 3.918 3.392 11.357 3.392 8.617 0 8.95-.341 6.4-6.59-5.491-13.475-18.543-21.166-31.082-18.313m9.766.978a37.218 37.218 0 016.4 1.594c3.256 1.417 10.18 7.05 10.18 8.284a6.921 6.921 0 001.4 2.386 13.62 13.62 0 011.963 3.507 30.827 30.827 0 001.491 3.591c1.559 3.1.626 3.585-7.033 3.66-7.012.069-7.727-.155-10.872-3.41-4.507-4.663-12-5.361-15.832-1.478-.69.7-2.176 2.076-3.3 3.058l-2.046 1.786h-6.535c-7.745 0-8.695-.356-7.8-2.923.3-.873.778-2.441 1.052-3.486a9.822 9.822 0 011.737-3.322 16.972 16.972 0 001.888-2.671c2.039-3.915 9.318-8.99 14.451-10.076 6.8-1.437 7.211-1.453 12.851-.5m-7.392 24.611c-2.2.678-2.916 2.053-2.43 4.642l.314 1.673 3.78.33c4.627.4 4.743.336 4.743-2.743 0-4.361-1.653-5.368-6.407-3.9m4.142 1.57c2.189 2.491.7 4.763-2.7 4.125-3.544-.665-3.8-2.571-.537-4.052 2.4-1.088 2.349-1.087 3.24-.073m-28 5.81c-3.578 1.513.014 10.219 7.012 16.993 13.9 13.449 37.724 8.141 45.139-10.056 2.587-6.349 2.029-7.1-5.468-7.335-6.749-.215-8.8.318-10.8 2.807-5.614 6.985-13.17 6.827-20.114-.42l-2.128-2.222-6.281-.111a37.241 37.241 0 00-7.361.345m14.728 1.661c4.34 7.756 17.217 8.529 21.492 1.29 2.018-3.415 16.359-3.649 16.359-.266 0 5.424-7.484 15.079-14.4 18.577-5.758 2.912-17.774 2.995-23.822.164-8.793-4.114-18.323-18.13-13.868-20.4 1.956-1 13.621-.479 14.242.631m-92.441 8.528c-10.956 5.022-8.555 18.8 3.56 20.424a25.471 25.471 0 015.316 1.48 40.727 40.727 0 007.594 1.863c2.689.4 6.238 1.046 7.886 1.427 11.006 2.551 18.677-5.008 14.325-14.117-2.483-5.2-8.831-7.634-26.857-10.306a27.431 27.431 0 01-5.087-1.218c-2.3-.962-3.9-.856-6.736.446m7.357.477c1.7.382 4.794 1.039 6.882 1.457 13.651 2.738 17.439 3.572 18.294 4.03 9.347 5 8.563 16.3-1.316 18.945-1.668.446-2.715.377-6.171-.408-2.289-.519-6.013-1.157-8.277-1.418a31.18 31.18 0 01-6.882-1.624 25.627 25.627 0 00-5.61-1.494c-9.293-1.123-13.886-9.959-8.334-16.033 3.473-3.8 6.212-4.629 11.414-3.455m50.321 21.087c-.919.256-1.511 1.147-2.726 4.106a39.858 39.858 0 01-3.389 6.393c-1.9 2.7-2 4.189-.371 5.455 1.431 1.113 6.377 7.254 6.705 8.325.2.642.911 2.449 1.589 4.016 2.874 6.652 1.024 19.52-3.531 24.563-3.19 3.53-3.277 5.152-.446 8.3 6.419 7.139 7.947 20.89 3.337 30.043a28.069 28.069 0 01-25.368 15.172c-6.446 0-7.139.4-7.139 4.083 0 2.133.211 2.815 1.166 3.77l1.165 1.165 47.368-.006c37.239-.006 47.622-.136 48.555-.608l1.187-.6.073-8.384c.127-14.55 3.033-21.422 13.317-31.5l4.884-4.784.117-26.306c.151-33.9.188-32.136-.7-33.024-.953-.953-3.3.622-4.7 3.159a37.582 37.582 0 01-2.347 3.56c-.785 1.044-2.409 3.393-3.608 5.22s-3.058 4.365-4.132 5.64a30.117 30.117 0 00-2.9 4.087 74.325 74.325 0 01-4.509 6.415c-1.959 2.556-4.073 5.416-4.7 6.357-7.962 11.947-12.779 15.048-16.841 10.839-3.222-3.338-13.889-17.321-17.673-23.165a26.969 26.969 0 00-2.738-3.717 45.619 45.619 0 01-3.617-4.95c-1.594-2.394-3.687-5.45-4.653-6.791s-2.586-3.691-3.6-5.222-2.618-3.933-3.56-5.339-2.317-3.489-3.057-4.628a6.67 6.67 0 00-1.662-2.024c-.173.026-.843.2-1.49.375m4.359 4.919c1.438 2.154 2.969 4.45 3.4 5.1 2.367 3.583 3.233 4.84 3.853 5.584a80.9 80.9 0 014.859 6.939c.986 1.536 2.646 3.858 3.691 5.16a37.842 37.842 0 012.736 3.853 38.439 38.439 0 002.484 3.622c.906 1.175 2.509 3.31 3.561 4.747s2.655 3.571 3.562 4.746 2.02 2.671 2.473 3.324 2.278 2.945 4.056 5.094c7.094 8.574 9.173 7.479 23.649-12.451 2.086-2.872 4.152-5.649 4.592-6.171a16.038 16.038 0 001.583-2.47 27.11 27.11 0 012.677-3.8c1.042-1.251 2.876-3.771 4.075-5.6s2.825-4.177 3.615-5.22a30.861 30.861 0 002.233-3.415c.966-1.84 3.352-3.032 4-2 .235.372.425 12.985.429 28.436.006 31.7.4 28.828-4.49 33.036-10.278 8.852-14.72 20.167-13.693 34.867.189 2.713.1 4.409-.272 5.1l-.556 1.039H67.936l-.94-1.542c-2.626-4.307-1.018-5.72 6.65-5.847a28.46 28.46 0 0024.781-14.945c4.94-8.843 3.5-23.857-3-31.238-2.343-2.663-2.382-4.072-.181-6.789a21.328 21.328 0 002.41-3.716c.411-.914 1.211-2.623 1.778-3.8 1.708-3.536 1.539-15.326-.273-19.075a14.948 14.948 0 01-1.306-3.4c0-.645-4.684-6.609-6.66-8.481-1.411-1.335-1.611-2.7-.566-3.854a20.654 20.654 0 004.15-7.316c1.392-4.69 3.132-4.563 6.5.475m-58.843 16.875c-8.108 3.227-7.937 17.433.235 19.533 1.244.32 3.672.987 5.4 1.48a64.386 64.386 0 006.882 1.453 39.3 39.3 0 016.637 1.636c14.5 5.432 24.754-1.755 19.881-13.933-1.465-3.661-5.962-5.751-15.144-7.037a40.949 40.949 0 01-7.832-1.829c-4.811-2.007-12.683-2.646-16.057-1.3m14.9 1.671a31.846 31.846 0 006.17 1.753c11.248 1.789 15.607 3.465 16.96 6.519 2.47 5.578 1.621 9.951-2.65 13.644l-2.029 1.756-4.747-.2a28.955 28.955 0 01-8.544-1.462 72.162 72.162 0 00-7.357-1.947c-15.451-3-17.6-4.4-17.955-11.713l-.176-3.6 2.092-2.567c2.989-3.666 3.467-3.84 9.868-3.608 4.527.166 5.954.409 8.367 1.432m-11.691 39.44c-5.178 1.961-5.855 2.485-7.556 5.871-3.343 6.65.507 12.655 9.636 15.028a65.468 65.468 0 016.285 1.918 33.712 33.712 0 006.786 1.257 36.074 36.074 0 017.32 1.424c3.716 1.464 6.857 1.284 9.96-.572 10.119-6.053 6.563-18.29-5.925-20.387a54.644 54.644 0 01-6.138-1.429 52.082 52.082 0 00-7.357-1.431 53.055 53.055 0 01-7.494-1.468c-3.262-1.031-3.342-1.035-5.516-.211m5.044.916a43.907 43.907 0 006.348 1.215 59.562 59.562 0 017.6 1.491 51.541 51.541 0 006.264 1.355c8.669 1.206 14.373 7.8 11.791 13.644-2.718 6.145-8.072 8.47-14.171 6.15a36.364 36.364 0 00-6.8-1.266 35.451 35.451 0 01-6.971-1.348c-1.219-.472-4.187-1.339-6.593-1.926-7.329-1.788-11.629-6.375-10.352-11.044 1.834-6.707 7.3-10.212 12.888-8.272m88.464 7.348c-10.558 4.354-14.018 8.9-13.978 18.357.1 23.812 34.1 24.908 36.6 1.18 1.217-11.56-12.737-23.612-22.62-19.536m11.4 2.306c8.176 3.969 11.7 10.937 9.978 19.708-3.981 20.237-33.789 18.1-34.576-2.477-.27-7.049.012-7.882 4.7-13.924.882-1.135 5.637-3.785 9.207-5.128 2.365-.89 6.586-.172 10.688 1.82m-11.165 11.219c-5.44 4.7.464 14.281 6.467 10.493 4.654-2.939 4.7-9.5.078-11.43-2.6-1.088-4.521-.814-6.545.937m7.888.744a6.237 6.237 0 01-1.641 9.026c-5.539 3.424-10.772-5.825-5.464-9.656 1.63-1.176 5.952-.793 7.1.629" />
		<path d="M53.948.878c-2.216.372-3.085.83-3.085 1.625 0 .314-.464.781-1.031 1.04-3.148 1.431-2.977-.57-3.241 38.119-.235 34.665-.339 36.78-1.745 35.613-5-4.148-24.561-3.8-29.345.525a13.487 13.487 0 01-2.438 1.61c-2.62 1.323-9 8.061-10.6 11.19-2.921 5.724-2.491 21.324.716 26.088.772 1.146 1.7 2.641 2.055 3.322a15.776 15.776 0 001.959 2.663 9.332 9.332 0 011.484 1.975c.317.984 7.074 6.332 8 6.332a2.334 2.334 0 011.6.989 6.036 6.036 0 002.519 1.63c2.4.84 2.269 2.014-.556 5.034a9.409 9.409 0 00-2.127 2.949 1.9 1.9 0 01-.666 1.227c-2.767 2.3-4.987 11.9-4.2 18.16.506 4.007 2.986 10.832 3.937 10.832.2 0 .595.679.884 1.508.509 1.461 1.73 2.987 4.432 5.539 1.685 1.591 1.648 3.146-.131 5.5a7.662 7.662 0 00-1.411 2.472 3.762 3.762 0 01-1.208 1.729c-2.832 2.625-2.637 25.025.216 25.025.263 0 .7.82.971 1.823a6.661 6.661 0 001.494 2.729 11.438 11.438 0 011.923 2.712l.921 1.805-1.883 2.82a24.746 24.746 0 00-2.463 4.6 4.923 4.923 0 01-1.206 2.15c-2.259 1.333-2.233 19.232.03 20.1a4.237 4.237 0 011.155 2.31c.725 2.878 5.408 9.735 6.65 9.735a4.375 4.375 0 011.523 1.131 16.542 16.542 0 002.6 2.018 55.274 55.274 0 012.628 1.7 12.788 12.788 0 004.224 1.265c7.916 1.152 8.038 1.369 8.047 14.114 0 5.254.141 10.224.305 11.047.461 2.307 5.088 6.761 7.5 7.222 2.875.55 148.268-.04 150.139-.608 4.767-1.448 1.266-7.714-4.627-8.284-1.98-.192-3.341-.582-3.8-1.092a19.9 19.9 0 00-2.8-2.186 19.243 19.243 0 01-3.56-3.224 119.487 119.487 0 00-2.545-3.044 4.2 4.2 0 01-1.068-2.107 17.485 17.485 0 00-.95-3.593c-1.437-4.086-1.272-6.294 1.039-14a3.354 3.354 0 011.384-2.041 1.909 1.909 0 001.114-1.076c.377-1.161 5.105-5.8 6.8-6.663a11.766 11.766 0 012.719-.712c6.247-.955 10.442-5.468 10.442-11.231 0-3.8-.048-3.91-4.19-9.163l-1.343-1.7.054-31.646c.059-34.143.011-33.465 2.583-36.037 2.129-2.129 8.058-1.441 9.358 1.087.543 1.058.715 10.232.982 52.544.237 37.588.5 53.1.974 58.145l.652 6.883-2.331 4.493c-3.071 5.921-2.7 9.209 1.561 13.658 2 2.092 2.85 2.252 12.032 2.255h7.991l1.067-1.24 1.068-1.24.315-55.243c.6-104.252.406-235.88-.346-238.377a11.056 11.056 0 00-4.5-6.016C233.277.643 58.326.136 53.932.874m180.461 2.079a11.426 11.426 0 012.925 3.151l1.034 1.837-.035 142.332c-.018 78.282-.2 144.229-.4 146.547-.508 5.811-.734 5.97-8.582 5.969-13.5 0-18.061-6.107-12.053-16.148 1.147-1.918 1.983-3.817 1.857-4.22-.927-2.954-1.369-20.675-1.623-65.047-.319-55.683-.061-51.973-3.8-54.461-3.5-2.334-7.1-1.333-10.456 2.907l-1.459 1.845v64.783l2.191 2.787c6.177 7.853 4.4 14.509-4.616 17.316-4.34 1.35-9.491 4.532-10.574 6.529a11.461 11.461 0 01-1.3 1.752c-5.631 6.241-5.56 18.646.148 25.929 2.909 3.71 8.618 7.98 10.674 7.985 4.215.007 7.006 2.482 5.753 5.1l-.624 1.306-14.946.3c-33.632.666-133.778.475-135.2-.26a24.144 24.144 0 01-4.9-4.666c-.044-.064-.205-5.293-.356-11.619l-.275-11.5-1.458-1.457c-1.212-1.211-2.092-1.559-5.222-2.065-9.874-1.6-18.117-9.832-21.645-21.626-1.645-5.5.444-15.5 4.439-21.251 3.2-4.6 3.207-5.139.2-8.841a40.023 40.023 0 01-3.436-5.532l-1.835-3.56v-16.152l1.841-3.56a42.384 42.384 0 013.2-5.29c1.95-2.473 1.757-3.392-1.449-6.891-8.145-8.888-10.558-24.964-4.84-32.235a4.686 4.686 0 001.007-1.9 15.22 15.22 0 012.567-3.645c3.424-4.036 3.526-4.984.708-6.52-8.509-4.637-11.808-7.728-17.112-16.037-4.19-6.563-4.126-22.009.113-27.628a47.562 47.562 0 017.941-8.188c.962-.631 2.629-1.727 3.7-2.437 5.611-3.7 22.937-3.839 27.657-.218 3.943 3.026 3.852 3.869 3.852-35.5 0-28.947.113-35.095.664-36.158a14.659 14.659 0 015.157-4.831c.621-.251 37.883-.392 89.862-.339l88.8.09 1.893 1.312M67.21 20.111c-1.173.858-1.726 107.173-.575 110.667.8 2.442 2.938 3.819 6.564 4.241a16.82 16.82 0 015.5 1.735 8.945 8.945 0 003.89 1.255l1.264-.146.255-9.967c.2-7.874.422-10.344 1.05-11.763a26 26 0 001.327-4.746c2.775-15.39 19.667-32.762 38.533-39.625l4.877-1.774h26.106l5.458 2.048c9.975 3.743 17.615 8.654 23.879 15.351 5.992 6.4 7.528 8.509 10.086 13.828.905 1.883 1.952 3.958 2.327 4.61 2.822 4.924 4.194 14.344 3.976 27.293l-.159 9.494h6.645a64.311 64.311 0 018.307.39c3.65.848 3.345 6.487 3.332-61.625-.011-56.454-.069-60.8-.814-61.348-1.27-.941-150.537-.862-151.825.08m150.906.994c.4 1.032.416 118.99.02 120.021-.266.694-.613.79-1.8.5a55.5 55.5 0 00-7.311-.406c-6.338-.051-7.017-.328-6.5-2.645 1.466-6.587.036-26.555-2.113-29.483a8.623 8.623 0 01-1.232-2.951 6.484 6.484 0 00-1.5-2.895 7.391 7.391 0 01-1.607-3.074c-.925-4.117-9.6-14.477-16.344-19.505-1.224-.914-2.744-2.139-3.377-2.721a27.116 27.116 0 00-4.708-2.8 23.627 23.627 0 01-3.792-2.111 8.34 8.34 0 00-2.806-.91 11.288 11.288 0 01-3.819-1.515c-3.256-2.561-33.3-2.548-36.564.015a8.058 8.058 0 01-3 1.308c-2.165.392-10.336 4.59-11.963 6.146a4.383 4.383 0 01-1.722 1.16c-.664 0-11.542 10.385-11.542 11.019a8.357 8.357 0 01-1.877 2.362c-2.029 2.029-4.908 6.87-5.45 9.166a6.4 6.4 0 01-1.292 2.446 7.918 7.918 0 00-1.419 3.092 22.42 22.42 0 01-1.4 4.027c-1.312 2.733-2.417 12.333-2.241 19.461.163 6.6-.4 7.585-2.955 5.141-.927-.889-1.951-1.244-4.281-1.487-3.335-.346-7.325-2.358-7.636-3.847-.1-.453-.113-25.44-.04-55.528l.131-54.7h74.932c66.507 0 74.963.08 75.207.718M106.901 32.899c-4.5 1.589-6.117 4.8-4.832 9.578 1.149 4.265 10.55 7.057 14.773 4.386a18.261 18.261 0 013.085-1.541c3-1.035 3.986-5.9 1.905-9.454-2.174-3.709-9-5.067-14.932-2.969m22.715.917c-6.789 3.163-5.24 12.862 2.334 14.623 2.639.613 44.543.528 46.834-.1 7.012-1.907 8.343-12.82 1.784-14.641-2.671-.741-49.34-.637-50.953.114m-11.7.361c4.507 1.251 4.9 8.883.558 10.7-3.648 1.523-11.228 1.251-13.607-.488-3.176-2.323-2.072-9.1 1.659-10.181a35.808 35.808 0 0111.39-.03m63.223 1.442c3.352 2.943 3.3 7.023-.116 9.825l-2.147 1.761h-47.083l-2.227-1.615c-4.249-3.08-4.331-6.393-.249-9.9l1.8-1.542h48.346l1.672 1.468m-48.142 48.44c-4.537.752-14.092 5.593-18.535 9.391-7.39 6.315-11.965 13.338-15.022 23.057-1.83 5.82-1.962 19.635-.228 23.88a35.694 35.694 0 011.506 4.648 15.663 15.663 0 001.747 4.124c.7 1.1 1.874 3.173 2.614 4.608s1.973 3.572 2.741 4.747 1.862 2.986 2.43 4.025a31.219 31.219 0 002.339 3.56c.721.919 2.332 3.379 3.581 5.468a35.37 35.37 0 002.83 4.272 26.433 26.433 0 012.38 3.322c1 1.567 2.588 3.81 3.525 4.984s2.337 3.075 3.111 4.224 1.834 2.667 2.357 3.377 1.751 2.44 2.73 3.845 2.52 3.518 3.423 4.692 2.4 3.151 3.327 4.391c2.822 3.769 4.532 3.094 9.021-3.56.925-1.37 2.327-3.347 3.117-4.391s2.015-2.754 2.724-3.8a15.745 15.745 0 011.876-2.373 19.3 19.3 0 002.137-2.934c.851-1.353 2.505-3.7 3.676-5.22s2.453-3.322 2.849-4.006c.806-1.394 4.763-7.381 7.477-11.312 9.79-14.19 14.212-23.86 14.84-32.457 1.35-18.474-3.189-29.978-16.383-41.522-3.739-3.272-14.081-8.4-18.339-9.086a110.551 110.551 0 00-19.851.046m20.61 1.379a11.256 11.256 0 014.109 1.209 10.349 10.349 0 003.064 1.412 6.654 6.654 0 012.919 1.628 2.244 2.244 0 001.541.95c2.168 0 13.081 10.294 14.594 13.766a19.574 19.574 0 001.606 2.9c7.111 10.012 7.013 29.365-.22 43.375a21.285 21.285 0 00-1.717 3.916.558.558 0 01-.5.594c-.276 0-.948 1.014-1.495 2.254a8.8 8.8 0 01-1.872 2.875c-.483.341-.878.833-.878 1.094a17.136 17.136 0 01-2.017 3.362 83.812 83.812 0 00-5.093 8.119 5.775 5.775 0 01-1.67 2.06 5.716 5.716 0 00-1.631 2.231 39.46 39.46 0 01-3.572 5.3 36.745 36.745 0 00-3.27 4.746 9.847 9.847 0 01-1.909 2.576 3.749 3.749 0 00-1.248 2.017c0 .477-.205.867-.456.867-.492 0-5.7 6.736-6.871 8.893-2.318 4.256-5.251 5.431-6.415 2.568-.759-1.872-3.133-5.162-6.075-8.422a4.423 4.423 0 01-1.067-1.64 3.669 3.669 0 00-1.187-1.489 3.439 3.439 0 01-1.187-1.612 7.953 7.953 0 00-1.542-2.5c-3.016-3.739-6.053-7.99-6.053-8.474 0-.512-1.921-3.17-4.049-5.6a31.561 31.561 0 01-4.256-6.557 24.873 24.873 0 00-2.336-3.649 10.865 10.865 0 01-1.668-2.663 8.439 8.439 0 00-1.467-2.333 10.646 10.646 0 01-1.716-2.925 2.773 2.773 0 00-1.136-1.579 3.079 3.079 0 01-1.162-1.85 13.672 13.672 0 00-1.7-3.5c-1.4-2.119-2.333-5.168-4.189-13.737-1.528-7.062.2-19.974 3.467-25.872.4-.721 1.281-2.431 1.961-3.8s1.442-2.491 1.692-2.491.589-.373.753-.831c.273-.757 3.107-3.984 5.689-6.477 4.033-3.895 5.316-4.915 6.566-5.224a7.152 7.152 0 002.606-1.447 6.813 6.813 0 012.918-1.4 7.982 7.982 0 002.992-1.3c2.155-1.7 17.159-2.492 25.154-1.335M24.997 95.292c-6.793 3.186-6.929 10.467-.32 17.292a12.467 12.467 0 003.861 2.789 8.746 8.746 0 012.4 1.149 116.038 116.038 0 0012.179 6.123 3.855 3.855 0 011.6 1c.765.921 2.657.885 3.019-.058.982-2.558.278-21.611-.84-22.729-4.684-4.682-17.068-7.831-21.9-5.565m12.493 1.773c1.485.664 3.235 1.515 3.887 1.891s1.934 1.031 2.848 1.457c2.394 1.115 2.358.937 2.365 11.718.009 11.186 0 11.209-3.428 9.25-1.113-.636-3.732-1.874-5.82-2.754a25.6 25.6 0 01-4.984-2.64 7.364 7.364 0 00-2.827-1.389 5.03 5.03 0 01-2.526-1.474 2.93 2.93 0 00-1.445-1.131c-.522 0-1.214-.962-3.258-4.506-.832-1.443-1.079-5.6-.457-7.676 1.178-3.938 9.653-5.426 15.645-2.746m97.793-.23c-5.026.941-8.226 2.191-9.657 3.773a8.054 8.054 0 01-2.362 1.638c-1.7.725-9.265 7.732-9.265 8.576a1.879 1.879 0 01-.687 1.155 6.139 6.139 0 00-1.243 2.312 7.827 7.827 0 01-1.626 2.773 6.167 6.167 0 00-1.41 2.832 13.885 13.885 0 01-.941 3 6.08 6.08 0 00-.388 2.933 6.943 6.943 0 01-.512 3.322c-1.374 3.007-1.666 4.887-.967 6.221a18.406 18.406 0 011.094 4.388 13.328 13.328 0 00.9 3.713 7.819 7.819 0 01.781 2.562 9.745 9.745 0 001.715 3.744 7.627 7.627 0 011.385 2.217c0 2.177 7.643 10.665 10.8 11.991a6 6 0 011.938 1.309 6.2 6.2 0 002.373 1.317 9.19 9.19 0 012.849 1.568c1.066.972 1.534 1.009 12.9 1.009s11.831-.037 12.9-1.009a9.013 9.013 0 012.8-1.552 10.7 10.7 0 002.611-1.237 66.052 66.052 0 016.384-4.509 13.941 13.941 0 002.147-2.491c1.031-1.371 2.109-2.741 2.4-3.045a8.8 8.8 0 001.146-2.135 10.5 10.5 0 011.539-2.606 8.025 8.025 0 001.356-3 11.028 11.028 0 011.337-3.249 10.694 10.694 0 001.178-4.695 19.978 19.978 0 01.81-4.571c.4-.883.346-1.755-.24-3.77a23.508 23.508 0 01-.762-5.452c0-2.07-.244-3.141-.91-3.986a8.126 8.126 0 01-1.25-2.968 8.355 8.355 0 00-1.628-3.3 8.243 8.243 0 01-1.588-2.714c-.586-2.409-7.362-9.258-10.535-10.646a8.037 8.037 0 01-2.311-1.6c-3.45-3.811-15.392-5.636-25.047-3.827m17.5 1.849a17.729 17.729 0 016.028 2.312c.913.7 2.515 1.788 3.56 2.42 7.47 4.518 14.333 15.442 14.19 22.584a8.35 8.35 0 00.973 4.263c1.184 2.195 1.312 4.366.336 5.759a10.113 10.113 0 00-.984 3.546c-.581 5.006-1.275 7.81-2.338 9.45-.592.914-1.68 2.73-2.417 4.035-12.148 21.506-45.853 21.052-58.726-.79-3.763-6.385-3.769-6.4-4.036-10.783-.208-3.405-.44-4.319-1.391-5.459q-1.922-2.305.328-5.513c.579-.827.893-2.42 1.039-5.257s.49-4.581 1.128-5.74c.507-.917 1.75-3.2 2.764-5.074 1.939-3.581 8.356-10.226 11.369-11.771a20.187 20.187 0 002.631-1.651c4.32-3.367 16.53-4.481 25.548-2.331m-12.697 6.515c-8.879 1.4-16.453 5.745-19.2 11.016a16.974 16.974 0 01-1.888 2.671 9.822 9.822 0 00-1.737 3.322 56.32 56.32 0 01-1.052 3.486c-.9 2.567.053 2.923 7.8 2.923h6.526l2.046-1.785c1.125-.982 2.611-2.358 3.3-3.058 3.834-3.884 11.325-3.185 15.832 1.478 3.146 3.256 3.86 3.479 10.872 3.41 7.659-.075 8.592-.56 7.033-3.66a30.836 30.836 0 01-1.491-3.591 13.62 13.62 0 00-1.964-3.507 6.919 6.919 0 01-1.4-2.386c0-1.234-6.924-6.867-10.18-8.284a51.6 51.6 0 00-12.094-2.285 28.47 28.47 0 00-2.409.251m10.442 2.27c4.157.862 5.15 1.235 6.629 2.487 2.532 2.144 7.137 6.807 7.137 7.226a6.575 6.575 0 001.406 2.086 7.81 7.81 0 011.727 3.608 6.149 6.149 0 00.967 2.654c1.669 1.669.326 2.122-6.325 2.132-5.826.007-6.761-.309-9.585-3.251-5.674-5.908-15.388-6.285-18.025-.7a2.83 2.83 0 01-1.439 1.329 2.087 2.087 0 00-1.23 1.171c-.428 1.349-12.046 2.238-13.9 1.063-.812-.516.168-5.743 1.264-6.726a23.591 23.591 0 002.362-3 39.951 39.951 0 017.463-7.656c3.725-3.032 13.375-4.118 21.546-2.422m-8.827 24.424c-3.259 1.481-3.007 3.387.537 4.052 3.4.638 4.891-1.633 2.7-4.125-.89-1.014-.843-1.015-3.24.073m2.895 2.181c0 .261-.8.542-1.781.622-1.669.138-2.221-.26-1.44-1.04.495-.495 3.221-.14 3.221.418m-27.166 4.585c-4.455 2.265 5.076 16.282 13.868 20.4 6.048 2.83 18.064 2.747 23.822-.165 6.918-3.5 14.4-13.152 14.4-18.577 0-3.383-14.341-3.149-16.359.266-4.276 7.24-17.152 6.467-21.492-1.29-.621-1.109-12.286-1.626-14.242-.631m12.352 1.307a22.141 22.141 0 014.176 3.321c3.488 3.32 4.283 3.568 10.428 3.275 3.755-.179 4.4-.345 5.554-1.423a13.458 13.458 0 012.376-1.769 1.864 1.864 0 001.068-1.267c0-2.352 13.051-3.842 14.237-1.626.66 1.234-.714 6.154-1.964 7.032a2.011 2.011 0 00-.888 1.187c-.014 1.283-8.083 8.873-9.434 8.873a11.25 11.25 0 00-3.45 1.271c-3.379 1.766-14.344 1.93-17.181.257a17.956 17.956 0 00-3.7-1.548 6.371 6.371 0 01-2.89-1.682c-.5-.631-1.094-1.146-1.33-1.146a6.794 6.794 0 01-1.982-1.72 357.46 357.46 0 00-2.623-2.87 4.3 4.3 0 01-1.068-1.586 6.764 6.764 0 00-1.384-2.012c-1.466-1.671-2.237-4.368-1.715-6.011.347-1.093 9.255-1.513 11.772-.556m-89.983 8.449c-10.982 3.661-8.253 17.92 3.706 19.364a25.624 25.624 0 015.61 1.494 31.184 31.184 0 006.882 1.624c2.264.261 5.988.9 8.277 1.418 13.778 3.13 19.855-11.917 7.487-18.537-.854-.458-4.643-1.292-18.294-4.03a359.813 359.813 0 01-6.882-1.457c-3.719-.84-3.907-.836-6.786.124m11.77 2.309a145.553 145.553 0 0015.779 2.976c2.4.317 3.858.788 4.836 1.565a63.55 63.55 0 002.579 1.94c2.531 1.771 2.746 9.777.319 11.973-1.9 1.719-6.193 2.605-9.3 1.92a64.5 64.5 0 00-7.7-.93c-4-.252-5.17-.506-6.5-1.407a10.716 10.716 0 00-4.506-1.426c-10.764-1.218-16.548-8.982-11.146-14.96 3.334-3.691 5.507-3.921 15.635-1.652m44.749 20.162a6.489 6.489 0 00-1.547 2.937 20.653 20.653 0 01-4.15 7.316c-1.045 1.151-.845 2.519.566 3.854 1.976 1.872 6.66 7.836 6.66 8.481a14.952 14.952 0 001.306 3.4c1.813 3.749 1.981 15.539.273 19.075a173.244 173.244 0 00-1.778 3.8 21.322 21.322 0 01-2.41 3.716c-2.2 2.718-2.163 4.126.18 6.79 6.5 7.382 7.942 22.395 3 31.238a28.46 28.46 0 01-24.781 14.945c-7.667.127-9.276 1.541-6.65 5.847l.94 1.542h95.876l.556-1.039c.371-.694.461-2.39.272-5.1-1.028-14.7 3.415-26.015 13.693-34.867 4.885-4.208 4.5-1.335 4.49-33.036 0-15.451-.194-28.064-.429-28.436-.653-1.031-3.039.161-4.005 2a30.836 30.836 0 01-2.233 3.415c-.79 1.044-2.417 3.393-3.615 5.22s-3.033 4.347-4.075 5.6a27.106 27.106 0 00-2.677 3.8 16.043 16.043 0 01-1.583 2.47c-.44.522-2.506 3.3-4.592 6.171-14.475 19.931-16.555 21.025-23.649 12.451-1.778-2.149-3.6-4.443-4.056-5.094s-1.565-2.148-2.473-3.324-2.511-3.31-3.562-4.746-2.655-3.572-3.561-4.747a38.406 38.406 0 01-2.484-3.622 37.867 37.867 0 00-2.736-3.853c-1.045-1.3-2.705-3.624-3.691-5.16a80.9 80.9 0 00-4.859-6.939c-.619-.744-1.486-2-3.853-5.584-6.275-9.5-6.414-9.641-8.35-8.513m3.118 2.462c.449.848 1.29 2.253 1.868 3.122s2.2 3.325 3.6 5.458a36.685 36.685 0 003.39 4.592 4.306 4.306 0 011.145 1.736 2.149 2.149 0 00.984 1.285 4.509 4.509 0 011.422 2.061 7.6 7.6 0 001.33 2.275 18.574 18.574 0 012.1 2.848 12.244 12.244 0 002.438 2.944 3.486 3.486 0 011.236 1.977 7.625 7.625 0 001.585 2.818c2.458 2.719 6.735 8.388 6.735 8.928a7.894 7.894 0 001.207 1.776c.664.821 1.679 2.087 2.255 2.813s1.8 2.123 2.709 3.1a27.239 27.239 0 012.848 3.761c2.556 4.26 11.331 5 12.581 1.061a1.948 1.948 0 01.965-1.12 1.113 1.113 0 00.694-.939 11.14 11.14 0 012.421-3.22 44.243 44.243 0 003.679-4.4c1.3-1.924 2.02-2.972 3.627-5.312.521-.758 1.908-2.634 3.085-4.171 5.15-6.719 8.9-12.046 10.095-14.351.46-.883 1.013-1.6 1.232-1.6s.8-.8 1.3-1.779a8.525 8.525 0 011.682-2.362 3.666 3.666 0 001.077-1.78c.3-1.206 1.83-1.677 2.406-.743.155.25.271 12.315.259 26.813-.025 28.228-.1 29.149-2.447 29.935-.852.286-6.316 5.565-7.653 7.394a32.026 32.026 0 00-4.152 7.346 11.742 11.742 0 01-1.434 2.928 9.648 9.648 0 00-1.156 3.718c-.483 3.865-.929 2.744-1.234-3.106-.173-3.329-.517-5.525-.977-6.25a23.024 23.024 0 01-1.544-3.356 12.167 12.167 0 00-3.329-4.509 18.109 18.109 0 00-6.461-4.163c-.914-.409-2.195-1.057-2.848-1.438-1.6-.932-8.351-.94-9.968-.01-.652.376-2.72 1.468-4.595 2.427-3.242 1.658-3.926 2.275-7.224 6.51-2.271 2.918-3.159 10.553-1.961 16.869.973 5.133 7.732 11.411 13.306 12.361 1.7.288 3.816.736 4.71.994a3.148 3.148 0 002.135.062 20.8 20.8 0 014.251-1.159 14.79 14.79 0 004.547-1.483 2.777 2.777 0 011.249-.73 7.476 7.476 0 002.1-1.924c.911-1.058 2.234-2.55 2.939-3.316a7.4 7.4 0 001.6-3.06c.294-1.572 1.584-2.4 1.669-1.075.417 6.394.105 15.223-.558 15.823-.8.725-93.453.84-94.175.117a6.4 6.4 0 01-.568-2.192c-.308-2.293.108-2.414 8.385-2.461 4.325-.023 5.837-.216 7.357-.936a96.284 96.284 0 013.576-1.594c1.735-.718 6.84-4.959 8.069-6.7a25.524 25.524 0 011.9-2.267c4.951-5.243 6.611-12.568 5.322-23.468-.584-4.921-2.869-9.908-5.747-12.537-2.179-1.99-1.962-4.189.674-6.825a4.18 4.18 0 001.176-1.69 5.321 5.321 0 011-1.866c3.629-4.909 3.768-20.246.224-24.955a9.216 9.216 0 01-1.385-2.7 2.341 2.341 0 00-1.262-1.575c-.521-.164-.948-.571-.948-.9a7.428 7.428 0 00-1.779-2.474c-2.956-3.11-3.086-3.819-1.186-6.524a13.948 13.948 0 002.7-6.139 3.112 3.112 0 012.667-2.2c.147-.017.634.664 1.083 1.512m-57.1 18.485a16.575 16.575 0 00-3.251 3.186l-2.092 2.567.176 3.6c.359 7.314 2.5 8.715 17.955 11.713a72.165 72.165 0 017.357 1.947 28.951 28.951 0 008.544 1.462l4.747.2 2.029-1.756c4.271-3.693 5.12-8.067 2.65-13.644-1.353-3.054-5.711-4.73-16.96-6.519a31.856 31.856 0 01-6.17-1.753c-3.51-1.487-12.908-2.122-14.985-1.01m11.268 1.032a43.865 43.865 0 0011.962 3.411c4.692.741 12.1 2.765 12.974 3.544 2.656 2.37 2 12.36-.9 13.68a3.114 3.114 0 00-1.459 1.256c-.481 1.253-7.357.977-10.333-.415a19.878 19.878 0 00-6.147-1.469 15.2 15.2 0 01-5.222-1.215 22.89 22.89 0 00-5.29-1.64c-8.209-1.645-8.417-1.75-9.865-5.011-2.053-4.623-1.109-8.391 2.877-11.486 1.964-1.526 8.9-1.924 11.4-.655m-9.951 41.011c-3 1.193-3.225 1.389-4.368 3.886-3.507 7.66-.639 12.436 8.853 14.752 2.406.587 5.374 1.454 6.593 1.926a35.438 35.438 0 006.971 1.348 36.354 36.354 0 016.8 1.266c6.1 2.32 11.453 0 14.171-6.15 2.582-5.84-3.122-12.439-11.791-13.644a51.54 51.54 0 01-6.264-1.355 59.534 59.534 0 00-7.6-1.491 43.928 43.928 0 01-6.348-1.215c-2.493-.866-3.342-.783-7.021.677m9.809 1.031a22.068 22.068 0 015.226 1.144 36.082 36.082 0 006.645 1.509c12.11 1.867 16.733 4.865 16.5 10.7-.258 6.482-4.986 8.911-13.866 7.129-2.754-.553-6.642-1.213-8.64-1.466a30.929 30.929 0 01-5.933-1.359 25.1 25.1 0 00-5.149-1.233 11.89 11.89 0 01-4.516-1.418 14.772 14.772 0 00-2.676-1.4c-.838-.266-1.063-.831-1.333-3.356-1-9.3 2.1-11.606 13.745-10.25m97.417 7.366c6.552 3.362 8.8 5.986 10.369 12.126 4.638 18.1-18.407 30.735-31.426 17.223-8.21-8.52-6.092-23.164 4.135-28.581 7.787-4.126 10.168-4.234 16.922-.768m-10.723 11.908c-5.308 3.831-.076 13.079 5.464 9.656a6.237 6.237 0 001.641-9.026c-1.152-1.422-5.475-1.805-7.1-.629m6.425.847c2.294 2.292-.126 8.38-3.331 8.38-4.124 0-5.53-4.726-2.524-8.481.488-.61 5.227-.528 5.855.1" />
	</g>
</svg>
