<svg xmlns="http://www.w3.org/2000/svg" viewBox="0 0 59.758 54.778">
	<path data-name="iconmonstr-gear-11" d="M42.329 24.015v-5.7c-2.913-1.038-4.748-1.327-5.677-3.563s.174-3.765 1.494-6.536l-4.029-4.033c-2.751 1.307-4.29 2.425-6.539 1.494S25.046 2.9 24.015 0h-5.7c-1.026 2.883-1.32 4.748-3.563 5.677-2.241.931-3.76-.174-6.536-1.494l-4.03 4.031c1.314 2.764 2.422 4.293 1.493 6.536S2.883 17.287 0 18.313v5.7c2.876 1.026 4.748 1.322 5.677 3.563.936 2.261-.2 3.82-1.494 6.536l4.029 4.031c2.756-1.307 4.293-2.425 6.536-1.494 2.241.929 2.535 2.784 3.563 5.677h5.7c1.026-2.883 1.32-4.743 3.578-5.682 2.226-.926 3.737.177 6.521 1.5l4.029-4.031c-1.307-2.756-2.425-4.29-1.5-6.536s2.8-2.537 5.682-3.561zm-21.165 4.206a7.056 7.056 0 117.054-7.056 7.056 7.056 0 01-7.054 7.056zm38.594 10.47v-2.682c-1.369-.488-2.233-.625-2.672-1.676s.082-1.77.7-3.078l-1.9-1.9c-1.295.617-2.019 1.14-3.075.7s-1.193-1.307-1.678-2.672h-2.674c-.483 1.357-.622 2.233-1.678 2.672s-1.77-.082-3.075-.7l-1.9 1.9c.617 1.3 1.14 2.022.7 3.078s-1.315 1.193-2.672 1.676v2.682c1.355.481 2.233.622 2.672 1.676s-.095 1.8-.7 3.078l1.9 1.9c1.3-.617 2.022-1.14 3.075-.7s1.193 1.31 1.678 2.672h2.679c.483-1.357.622-2.233 1.683-2.674 1.048-.436 1.758.085 3.068.707l1.9-1.9c-.615-1.3-1.14-2.022-.7-3.075s1.317-1.2 2.672-1.678zM49.8 40.668a3.319 3.319 0 113.319-3.319 3.32 3.32 0 01-3.319 3.319zm-9.96 7.647V46.3c-1.026-.366-1.676-.468-2-1.257s.06-1.327.528-2.308l-1.424-1.422c-.969.463-1.511.857-2.306.528s-.894-.981-1.26-2h-2.015c-.364 1.018-.468 1.676-1.26 2s-1.327-.06-2.306-.528l-1.424 1.422c.466.979.857 1.516.528 2.308s-.986.894-2 1.257v2.012c1.016.361 1.676.468 2 1.257s-.07 1.35-.528 2.308L27.8 53.3c.971-.463 1.514-.857 2.306-.528s.894.984 1.26 2h2.009c.364-1.018.468-1.676 1.262-2 .784-.326 1.317.062 2.3.53l1.424-1.422c-.463-.974-.857-1.516-.528-2.308s.988-.9 2-1.26zM32.369 49.8a2.49 2.49 0 112.49-2.49 2.489 2.489 0 01-2.49 2.49z" fill="#4d64b7" />
</svg>
